<?xml version="1.0" encoding="UTF-8" standalone="no"?> <svg width="64" height="64" viewBox="0 0 64 64" fill="none" xmlns="http://www.w3.org/2000/svg">
<path d="M57 44H48.93C49.6385 42.7866 50.008 41.4051 50 40C50.0143 38.3474 49.4952 36.7342 48.52 35.4C48.4261 35.2766 48.3052 35.1764 48.1665 35.107C48.0278 35.0377 47.8751 35.0011 47.72 35H47.42L48.67 32H51V30H48C47.8022 29.9992 47.6087 30.058 47.4446 30.1685C47.2806 30.2791 47.1536 30.4364 47.08 30.62L45.25 35H40.28C40.1249 35.0011 39.9722 35.0377 39.8335 35.107C39.6948 35.1764 39.5739 35.2766 39.48 35.4C38.5048 36.7342 37.9857 38.3474 38 40C37.992 41.4051 38.3615 42.7866 39.07 44H31V22H52C52.2652 22 52.5196 21.8946 52.7071 21.7071C52.8946 21.5196 53 21.2652 53 21C53 10.52 41.79 2 28 2C14.21 2 3 10.52 3 21C3 21.2652 3.10536 21.5196 3.29289 21.7071C3.48043 21.8946 3.73478 22 4 22H25V44H23.04L15.65 31.19C15.1448 30.2735 14.3076 29.5854 13.3106 29.2673C12.3136 28.9493 11.2326 29.0254 10.29 29.48C9.80498 29.7246 9.37499 30.0656 9.02632 30.4821C8.67766 30.8986 8.41768 31.3819 8.26228 31.9024C8.10688 32.4229 8.05934 32.9696 8.12257 33.5091C8.1858 34.0486 8.35846 34.5695 8.63 35.04L11.65 40.26L6.4 50H3C2.73478 50 2.48043 50.1054 2.29289 50.2929C2.10536 50.4804 2 50.7348 2 51V55C2 55.2652 2.10536 55.5196 2.29289 55.7071C2.48043 55.8946 2.73478 56 3 56H5.61L4.05 60.68C4.00041 60.8304 3.98725 60.9904 4.01158 61.1469C4.03592 61.3033 4.09707 61.4518 4.19 61.58C4.28101 61.7103 4.40225 61.8165 4.54332 61.8897C4.68439 61.9628 4.84109 62.0007 5 62H9C9.20915 61.9985 9.4127 61.9323 9.58277 61.8106C9.75285 61.6888 9.88111 61.5175 9.95 61.32L11.72 56H25V61C25 61.2652 25.1054 61.5196 25.2929 61.7071C25.4804 61.8946 25.7348 62 26 62H30C30.2652 62 30.5196 61.8946 30.7071 61.7071C30.8946 61.5196 31 61.2652 31 61V56H52.28L54.05 61.32C54.1189 61.5175 54.2472 61.6888 54.4172 61.8106C54.5873 61.9323 54.7909 61.9985 55 62H59C59.1589 62.0007 59.3156 61.9628 59.4567 61.8897C59.5978 61.8165 59.719 61.7103 59.81 61.58C59.9029 61.4518 59.9641 61.3033 59.9884 61.1469C60.0128 60.9904 59.9996 60.8304 59.95 60.68L58.39 56H61C61.2652 56 61.5196 55.8946 61.7071 55.7071C61.8946 55.5196 62 55.2652 62 55V49C62 47.6739 61.4732 46.4021 60.5355 45.4645C59.5979 44.5268 58.3261 44 57 44ZM40.81 37H47.19C47.5548 37.6149 47.7991 38.2937 47.91 39H40.09C40.2009 38.2937 40.4452 37.6149 40.81 37ZM47.91 41C47.7498 42.1429 47.2111 43.1992 46.38 44H41.62C40.7889 43.1992 40.2502 42.1429 40.09 41H47.91ZM50.96 20H39.97C39.75 13.44 37.43 7.75 34.04 4.61C43.38 6.49 50.38 12.61 50.96 20ZM5.04 20C5.62 12.61 12.62 6.49 21.96 4.61C18.57 7.75 16.25 13.44 16.03 20H5.04ZM18.03 20C18.34 11.09 22.68 4 28 4C33.32 4 37.66 11.09 37.97 20H18.03ZM29 22V44H27V22H29ZM12.82 42.3L17.27 50H8.68L12.82 42.3ZM8.28 60H6.39L7.72 56H9.61L8.28 60ZM29 60H27V56H29V60ZM55.72 60L54.39 56H56.28L57.61 60H55.72ZM60 54H4V52H60V54ZM60 50H19.58L10.37 34.04C10.2311 33.8077 10.1424 33.5488 10.1097 33.2801C10.077 33.0114 10.1009 32.7389 10.18 32.48C10.2571 32.2189 10.3864 31.9762 10.56 31.7665C10.7336 31.5568 10.9479 31.3845 11.19 31.26C11.6788 31.0444 12.2307 31.0204 12.7363 31.1927C13.242 31.3649 13.6645 31.7209 13.92 32.19L21.6 45.5C21.6873 45.6511 21.8125 45.7768 21.9634 45.8645C22.1143 45.9522 22.2855 45.9989 22.46 46H57C57.7949 46.0024 58.5566 46.3192 59.1187 46.8813C59.6808 47.4434 59.9976 48.2051 60 49V50Z" fill="black"/>
</svg>
