<?xml version="1.0" encoding="iso-8859-1"?>
<!-- Generator: Adobe Illustrator 16.0.0, SVG Export Plug-In . SVG Version: 6.00 Build 0)  -->
<!DOCTYPE svg PUBLIC "-//W3C//DTD SVG 1.1//EN" "http://www.w3.org/Graphics/SVG/1.1/DTD/svg11.dtd">
<svg version="1.1" xmlns="http://www.w3.org/2000/svg" xmlns:xlink="http://www.w3.org/1999/xlink" x="0px" y="0px" width="512px"
	 height="512px" viewBox="0 0 512 512" style="enable-background:new 0 0 512 512;" xml:space="preserve">
<g id="F_-_625_x2C__Bus_x2C__school_x2C__transport">
	<g>
		<path d="M136,346c-16.542,0-30,13.458-30,30s13.458,30,30,30s30-13.458,30-30S152.542,346,136,346z M136,386
			c-5.514,0-10-4.486-10-10s4.486-10,10-10s10,4.486,10,10S141.514,386,136,386z"/>
		<path d="M376,346c-16.542,0-30,13.458-30,30s13.458,30,30,30s30-13.458,30-30S392.542,346,376,346z M376,386
			c-5.515,0-10-4.486-10-10s4.485-10,10-10c5.514,0,10,4.486,10,10S381.514,386,376,386z"/>
		<path d="M486,156h-50c0-20.878,0-74.715,0-98.333C436,34.691,417.308,16,394.333,16H117.667C94.691,16,76,34.691,76,57.667
			c0,23.164,0,80.073,0,98.333H26c-5.523,0-10,4.477-10,10v100c0,5.522,4.477,10,10,10h50v150c0,5.522,4.477,10,10,10h20v28.667
			C106,481.944,120.056,496,137.333,496h17.333C171.944,496,186,481.944,186,464.667V436h140v28.667
			C326,481.944,340.056,496,357.333,496h17.334C391.943,496,406,481.944,406,464.667V436h20c5.522,0,10-4.478,10-10V276h50
			c5.522,0,10-4.478,10-10V166C496,160.477,491.522,156,486,156z M96,126h320c0,18.634,0,163.102,0,190H96
			C96,289.314,96,144.696,96,126z M96,57.667C96,45.72,105.72,36,117.667,36h276.667C406.28,36,416,45.72,416,57.667V106H96V57.667z
			 M36,256v-80h40v80H36z M166,464.667c0,6.249-5.084,11.333-11.333,11.333h-17.333c-6.25,0-11.333-5.084-11.333-11.333V436h40
			V464.667z M386,464.667c0,6.249-5.084,11.333-11.333,11.333h-17.334c-6.249,0-11.333-5.084-11.333-11.333V436h40V464.667z M96,416
			v-80h320v80C406.774,416,111.596,416,96,416z M476,256h-40v-80h40V256z"/>
		<path d="M316,61H206c-5.523,0-10,4.477-10,10s4.477,10,10,10h110c5.522,0,10-4.477,10-10S321.522,61,316,61z"/>
		<path d="M335.138,161.938c-2.242-5.046-8.152-7.318-13.199-5.077l-90,40c-5.047,2.243-7.32,8.153-5.077,13.2
			c2.232,5.021,8.129,7.33,13.2,5.077l90-40C335.108,172.895,337.381,166.985,335.138,161.938z"/>
		<path d="M281.938,226.862l-90,40c-5.047,2.242-7.32,8.152-5.077,13.199c2.232,5.023,8.131,7.33,13.2,5.076l90-40
			c5.047-2.243,7.319-8.153,5.076-13.2C292.895,226.892,286.984,224.62,281.938,226.862z"/>
	</g>
</g>
<g id="Layer_1">
</g>
</svg>
