<?xml version="1.0" encoding="UTF-8" standalone="no"?><!DOCTYPE svg PUBLIC "-//W3C//DTD SVG 1.1//EN" "http://www.w3.org/Graphics/SVG/1.1/DTD/svg11.dtd"><svg width="292px" height="89px" version="1.1" xmlns="http://www.w3.org/2000/svg" xmlns:xlink="http://www.w3.org/1999/xlink" xml:space="preserve" xmlns:serif="http://www.serif.com/" style="fill-rule:evenodd;clip-rule:evenodd;stroke-linejoin:round;stroke-miterlimit:2;"><g transform="matrix(1,0,0,1,-969.622,0)"><g id="logo" transform="matrix(1.09767,0,0,1.43489,884.091,-168.688)"><rect x="77.921" y="117.561" width="265.198" height="61.764" style="fill:none;"/><g transform="matrix(0.12731,0,0,0.211467,-32.8595,69.5573)"><g transform="matrix(2,0,0,0.921088,1494.14,385.774)"><path d="M0,-35.863L-19.975,-35.863L-19.975,-50.449L38.277,-50.449L38.277,-35.863L18.396,-35.863L18.396,14.586L0,14.586L0,-35.863Z" style="fill:rgb(63,136,200);fill-rule:nonzero;"/></g><g transform="matrix(2,0,0,0.921088,1686.64,399.978)"><path d="M0,-51.191L0,-0.836L-16.816,-0.836L-16.816,-6.225C-20.625,-2.043 -26.014,0 -31.774,0C-44.131,0 -53.144,-7.06 -53.144,-23.041L-53.144,-51.191L-35.49,-51.191L-35.49,-25.92C-35.49,-18.117 -32.425,-15.05 -27.129,-15.05C-21.927,-15.05 -17.652,-18.488 -17.652,-26.942L-17.652,-51.191L0,-51.191Z" style="fill:rgb(63,136,200);fill-rule:nonzero;"/></g><g transform="matrix(2,0,0,0.921088,1776.75,399.208)"><path d="M0,-51.191L0,-35.304C-1.579,-35.489 -2.694,-35.583 -3.995,-35.583C-11.148,-35.583 -16.073,-31.959 -16.073,-23.133L-16.073,0L-33.726,0L-33.726,-50.355L-16.909,-50.355L-16.909,-44.316C-13.285,-48.868 -7.432,-51.191 0,-51.191" style="fill:rgb(63,136,200);fill-rule:nonzero;"/></g><g transform="matrix(2,0,0,0.921088,756.176,179.528)"><path d="M517.533,188.146L535.186,188.146L535.186,238.501L517.533,238.501L517.533,188.146ZM515.583,173.187C515.583,167.892 519.856,163.803 526.359,163.803C532.863,163.803 537.137,167.613 537.137,172.908C537.137,178.483 532.863,182.571 526.359,182.571C519.856,182.571 515.583,178.483 515.583,173.187" style="fill:rgb(63,136,200);fill-rule:nonzero;"/></g><g transform="matrix(2,0,0,0.921088,1841.41,356.849)"><path d="M0,41.622L5.296,29.544C9.94,32.425 16.724,34.189 22.854,34.189C28.801,34.189 30.752,32.889 30.752,30.752C30.752,23.97 1.021,31.681 1.021,11.521C1.021,2.044 9.756,-5.203 25.55,-5.203C32.61,-5.203 40.415,-3.716 45.432,-0.929L40.136,11.056C35.119,8.268 30.102,7.339 25.643,7.339C19.696,7.339 17.56,9.012 17.56,10.87C17.56,17.838 47.197,10.312 47.197,30.288C47.197,39.578 38.649,46.825 22.298,46.825C13.75,46.825 4.924,44.689 0,41.622" style="fill:rgb(63,136,200);fill-rule:nonzero;"/></g><g transform="matrix(2,0,0,0.921088,2122.92,378.584)"><path d="M0,-6.41L0,22.391L-17.653,22.391L-17.653,-3.53C-17.653,-10.777 -20.626,-13.843 -25.271,-13.843C-30.381,-13.843 -34.098,-10.405 -34.098,-2.601L-34.098,22.391L-51.75,22.391L-51.75,-3.53C-51.75,-10.777 -54.63,-13.843 -59.368,-13.843C-64.57,-13.843 -68.287,-10.405 -68.287,-2.601L-68.287,22.391L-85.94,22.391L-85.94,-27.964L-69.124,-27.964L-69.124,-22.669C-65.314,-26.757 -60.019,-28.801 -54.072,-28.801C-47.197,-28.801 -41.345,-26.292 -37.813,-20.904C-33.818,-25.92 -27.594,-28.801 -20.347,-28.801C-8.642,-28.801 0,-22.018 0,-6.41" style="fill:rgb(63,136,200);fill-rule:nonzero;"/></g><g transform="matrix(2,0,0,0.921088,2218.42,376.103)"><path d="M0,-0.186C0,-7.804 -4.552,-12.078 -10.592,-12.078C-16.538,-12.078 -21.183,-7.804 -21.183,-0.186C-21.183,7.525 -16.538,11.893 -10.592,11.893C-4.552,11.893 0,7.525 0,-0.186M-39.021,-0.186C-39.021,-15.33 -27.036,-26.107 -10.592,-26.107C6.039,-26.107 17.839,-15.33 17.839,-0.186C17.839,15.051 6.039,25.921 -10.592,25.921C-27.036,25.921 -39.021,15.051 -39.021,-0.186" style="fill:rgb(63,136,200);fill-rule:nonzero;"/></g><g transform="matrix(2,0,0,0.921088,2436.19,352.74)"><path d="M0,35.863L0,50.449L-58.252,50.449L-58.252,38.929L-25.456,0L-57.417,0L-57.417,-14.586L-1.394,-14.586L-1.394,-3.066L-34.189,35.863L0,35.863Z" style="fill:rgb(63,136,200);fill-rule:nonzero;"/></g><g transform="matrix(2,0,0,0.921088,2510.51,367.716)"><path d="M0,18.025L0,13.658L-7.618,13.658C-13.286,13.658 -15.33,15.702 -15.33,18.768C-15.33,21.741 -12.914,23.878 -8.734,23.878C-4.832,23.878 -1.395,22.02 0,18.025M17.652,6.226L17.652,34.19L1.207,34.19L1.207,27.687C-1.302,32.518 -6.318,35.026 -13.658,35.026C-25.735,35.026 -32.425,28.244 -32.425,19.511C-32.425,10.22 -25.643,4.46 -10.034,4.46L0,4.46C-0.278,-0.65 -3.717,-3.53 -10.686,-3.53C-15.516,-3.53 -20.904,-1.858 -24.342,0.837L-30.288,-11.148C-24.527,-14.957 -15.98,-17.001 -8.083,-17.001C8.269,-17.001 17.652,-9.754 17.652,6.226" style="fill:rgb(63,136,200);fill-rule:nonzero;"/></g><g transform="matrix(2,0,0,0.921088,2635.56,399.208)"><path d="M0,-51.191L0,-35.304C-1.58,-35.489 -2.694,-35.583 -3.996,-35.583C-11.149,-35.583 -16.073,-31.959 -16.073,-23.133L-16.073,0L-33.727,0L-33.727,-50.355L-16.91,-50.355L-16.91,-44.316C-13.286,-48.868 -7.434,-51.191 0,-51.191" style="fill:rgb(63,136,200);fill-rule:nonzero;"/></g><g transform="matrix(2,0,0,0.921088,2642.8,376.103)"><path d="M0,-0.186C0,-15.33 11.985,-26.107 28.894,-26.107C40.321,-26.107 49.055,-20.998 52.493,-12.264L38.835,-5.296C36.42,-10.034 32.889,-12.078 28.801,-12.078C22.67,-12.078 17.838,-7.804 17.838,-0.186C17.838,7.618 22.67,11.893 28.801,11.893C32.889,11.893 36.42,9.848 38.835,5.11L52.493,12.078C49.055,20.812 40.321,25.921 28.894,25.921C11.985,25.921 0,15.144 0,-0.186" style="fill:rgb(63,136,200);fill-rule:nonzero;"/></g><g transform="matrix(2,0,0,0.921088,2831.77,376.103)"><path d="M0,-0.186C0,-7.804 -4.552,-12.078 -10.592,-12.078C-16.538,-12.078 -21.183,-7.804 -21.183,-0.186C-21.183,7.525 -16.538,11.893 -10.592,11.893C-4.552,11.893 0,7.525 0,-0.186M-39.021,-0.186C-39.021,-15.33 -27.036,-26.107 -10.592,-26.107C6.039,-26.107 17.838,-15.33 17.838,-0.186C17.838,15.051 6.039,25.921 -10.592,25.921C-27.036,25.921 -39.021,15.051 -39.021,-0.186" style="fill:rgb(63,136,200);fill-rule:nonzero;"/></g><g transform="matrix(2,0,0,0.921088,1491.57,444.645)"><path d="M0,21.866L1.782,17.865C4.002,19.648 7.527,20.915 10.934,20.915C15.252,20.915 17.073,19.37 17.073,17.31C17.073,11.328 0.594,15.25 0.594,4.951C0.594,0.474 4.159,-3.328 11.766,-3.328C15.093,-3.328 18.579,-2.457 20.995,-0.873L19.371,3.129C16.876,1.662 14.143,0.949 11.727,0.949C7.447,0.949 5.704,2.614 5.704,4.713C5.704,10.616 22.144,6.773 22.144,16.954C22.144,21.391 18.54,25.194 10.934,25.194C6.615,25.194 2.298,23.847 0,21.866" style="fill:rgb(63,136,200);fill-rule:nonzero;"/></g><g transform="matrix(2,0,0,0.921088,1586.09,467.741)"><path d="M0,-21.431L0,-0.277L-4.715,-0.277L-4.715,-2.972C-6.299,-1.03 -8.795,0 -11.528,0C-16.955,0 -20.639,-2.972 -20.639,-9.348L-20.639,-21.431L-15.688,-21.431L-15.688,-10.022C-15.688,-6.18 -13.865,-4.358 -10.736,-4.358C-7.29,-4.358 -4.952,-6.497 -4.952,-10.736L-4.952,-21.431L0,-21.431Z" style="fill:rgb(63,136,200);fill-rule:nonzero;"/></g><g transform="matrix(2,0,0,0.921088,1646.46,454.132)"><path d="M0,7.883L0,5.427L-5.11,5.427C-8.478,5.427 -9.389,6.695 -9.389,8.239C-9.389,10.022 -7.884,11.171 -5.349,11.171C-2.932,11.171 -0.833,10.062 0,7.883M4.951,2.099L4.951,14.499L0.277,14.499L0.277,11.924C-0.911,13.746 -3.209,14.776 -6.378,14.776C-11.211,14.776 -14.262,12.122 -14.262,8.438C-14.262,4.912 -11.885,2.139 -5.467,2.139L0,2.139L0,1.822C0,-1.07 -1.743,-2.773 -5.27,-2.773C-7.646,-2.773 -10.103,-1.981 -11.687,-0.674L-13.628,-4.279C-11.37,-6.021 -8.081,-6.893 -4.675,-6.893C1.425,-6.893 4.951,-4.001 4.951,2.099" style="fill:rgb(63,136,200);fill-rule:nonzero;"/></g><g transform="matrix(2,0,0,0.921088,1701.68,465.443)"><path d="M0,-8.993C0,-12.557 -2.694,-14.974 -6.418,-14.974C-10.181,-14.974 -12.875,-12.557 -12.875,-8.993C-12.875,-5.388 -10.181,-2.931 -6.418,-2.931C-2.694,-2.931 0,-5.388 0,-8.993M4.873,-18.935L4.873,-0.991C4.873,6.695 0.871,10.18 -6.536,10.18C-10.498,10.18 -14.42,9.151 -16.836,7.17L-14.618,3.446C-12.756,4.991 -9.745,5.981 -6.813,5.981C-2.14,5.981 -0.079,3.842 -0.079,-0.436L-0.079,-1.545C-1.822,0.357 -4.318,1.268 -7.17,1.268C-13.23,1.268 -17.866,-2.852 -17.866,-8.993C-17.866,-15.133 -13.23,-19.173 -7.17,-19.173C-4.199,-19.173 -1.584,-18.223 0.158,-16.123L0.158,-18.935L4.873,-18.935Z" style="fill:rgb(63,136,200);fill-rule:nonzero;"/></g><g transform="matrix(2,0,0,0.921088,1730.75,459.35)"><path d="M0,-3.447L12.004,-3.447C11.607,-6.498 9.27,-8.597 6.021,-8.597C2.813,-8.597 0.476,-6.537 0,-3.447M16.638,-0.159L0.04,-0.159C0.634,2.931 3.209,4.911 6.894,4.911C9.27,4.911 11.132,4.158 12.638,2.614L15.292,5.664C13.39,7.922 10.419,9.111 6.774,9.111C-0.316,9.111 -4.912,4.555 -4.912,-1.744C-4.912,-8.043 -0.276,-12.558 6.021,-12.558C12.201,-12.558 16.717,-8.24 16.717,-1.626C16.717,-1.229 16.678,-0.634 16.638,-0.159" style="fill:rgb(63,136,200);fill-rule:nonzero;"/></g><g transform="matrix(2,0,0,0.921088,1815.36,458.948)"><path d="M0,-2.852L0,9.27L-4.951,9.27L-4.951,-2.218C-4.951,-5.982 -6.813,-7.804 -9.982,-7.804C-13.508,-7.804 -15.885,-5.665 -15.885,-1.426L-15.885,9.27L-20.837,9.27L-20.837,-11.884L-16.123,-11.884L-16.123,-9.151C-14.499,-11.091 -11.924,-12.122 -8.833,-12.122C-3.763,-12.122 0,-9.23 0,-2.852" style="fill:rgb(63,136,200);fill-rule:nonzero;"/></g><g transform="matrix(2,0,0,0.921088,1824.86,457.781)"><path d="M0,-0.041C0,-6.379 4.754,-10.855 11.448,-10.855C15.568,-10.855 18.856,-9.152 20.48,-5.943L16.678,-3.725C15.41,-5.745 13.509,-6.656 11.409,-6.656C7.765,-6.656 4.991,-4.121 4.991,-0.041C4.991,4.079 7.765,6.575 11.409,6.575C13.509,6.575 15.41,5.664 16.678,3.643L20.48,5.862C18.856,9.031 15.568,10.814 11.448,10.814C4.754,10.814 0,6.297 0,-0.041" style="fill:rgb(63,136,200);fill-rule:nonzero;"/></g><g transform="matrix(2,0,0,0.921088,756.176,356.718)"><path d="M559.102,99.104L564.053,99.104L564.053,120.258L559.102,120.258L559.102,99.104ZM558.429,92.647C558.429,90.983 559.774,89.676 561.598,89.676C563.419,89.676 564.767,90.904 564.767,92.528C564.767,94.271 563.459,95.618 561.598,95.618C559.774,95.618 558.429,94.311 558.429,92.647" style="fill:rgb(63,136,200);fill-rule:nonzero;"/></g><g transform="matrix(2,0,0,0.921088,1922.79,454.132)"><path d="M0,7.883L0,5.427L-5.11,5.427C-8.478,5.427 -9.389,6.695 -9.389,8.239C-9.389,10.022 -7.884,11.171 -5.349,11.171C-2.932,11.171 -0.833,10.062 0,7.883M4.951,2.099L4.951,14.499L0.277,14.499L0.277,11.924C-0.911,13.746 -3.209,14.776 -6.378,14.776C-11.211,14.776 -14.262,12.122 -14.262,8.438C-14.262,4.912 -11.885,2.139 -5.467,2.139L0,2.139L0,1.822C0,-1.07 -1.744,-2.773 -5.27,-2.773C-7.646,-2.773 -10.103,-1.981 -11.687,-0.674L-13.628,-4.279C-11.37,-6.021 -8.082,-6.893 -4.675,-6.893C1.426,-6.893 4.951,-4.001 4.951,2.099" style="fill:rgb(63,136,200);fill-rule:nonzero;"/></g><g transform="matrix(2,0,0,0.921088,1998.92,450.41)"><path d="M0,7.961C0,3.92 -2.732,1.346 -6.298,1.346C-9.863,1.346 -12.597,3.92 -12.597,7.961C-12.597,12.003 -9.863,14.577 -6.298,14.577C-2.732,14.577 0,12.003 0,7.961M4.873,-10.855L4.873,18.539L0.119,18.539L0.119,15.805C-1.544,17.826 -4,18.816 -6.892,18.816C-13.032,18.816 -17.588,14.538 -17.588,7.961C-17.588,1.385 -13.032,-2.853 -6.892,-2.853C-4.159,-2.853 -1.742,-1.942 -0.078,-0.001L-0.078,-10.855L4.873,-10.855Z" style="fill:rgb(63,136,200);fill-rule:nonzero;"/></g><g transform="matrix(2,0,0,0.921088,2027.99,459.35)"><path d="M0,-3.447L12.003,-3.447C11.607,-6.498 9.27,-8.597 6.021,-8.597C2.813,-8.597 0.476,-6.537 0,-3.447M16.638,-0.159L0.04,-0.159C0.634,2.931 3.209,4.911 6.893,4.911C9.27,4.911 11.132,4.158 12.637,2.614L15.291,5.664C13.39,7.922 10.418,9.111 6.774,9.111C-0.316,9.111 -4.912,4.555 -4.912,-1.744C-4.912,-8.043 -0.277,-12.558 6.021,-12.558C12.201,-12.558 16.717,-8.24 16.717,-1.626C16.717,-1.229 16.678,-0.634 16.638,-0.159" style="fill:rgb(63,136,200);fill-rule:nonzero;"/></g><g transform="matrix(2,0,0,0.921088,2089.31,457.781)"><path d="M0,-0.041C0,-6.379 4.754,-10.855 11.449,-10.855C15.568,-10.855 18.856,-9.152 20.481,-5.943L16.678,-3.725C15.41,-5.745 13.509,-6.656 11.409,-6.656C7.765,-6.656 4.992,-4.121 4.992,-0.041C4.992,4.079 7.765,6.575 11.409,6.575C13.509,6.575 15.41,5.664 16.678,3.643L20.481,5.862C18.856,9.031 15.568,10.814 11.449,10.814C4.754,10.814 0,6.297 0,-0.041" style="fill:rgb(63,136,200);fill-rule:nonzero;"/></g><g transform="matrix(2,0,0,0.921088,2169.8,457.781)"><path d="M0,-0.041C0,-4.082 -2.694,-6.656 -6.3,-6.656C-9.864,-6.656 -12.558,-4.082 -12.558,-0.041C-12.558,4.001 -9.864,6.575 -6.3,6.575C-2.694,6.575 0,4.001 0,-0.041M-17.55,-0.041C-17.55,-6.379 -12.796,-10.855 -6.3,-10.855C0.277,-10.855 4.99,-6.379 4.99,-0.041C4.99,6.297 0.277,10.814 -6.3,10.814C-12.796,10.814 -17.55,6.297 -17.55,-0.041" style="fill:rgb(63,136,200);fill-rule:nonzero;"/></g><g transform="matrix(2,0,0,0.921088,2230.96,458.948)"><path d="M0,-2.852L0,9.27L-4.951,9.27L-4.951,-2.218C-4.951,-5.982 -6.813,-7.804 -9.982,-7.804C-13.508,-7.804 -15.885,-5.665 -15.885,-1.426L-15.885,9.27L-20.837,9.27L-20.837,-11.884L-16.123,-11.884L-16.123,-9.151C-14.499,-11.091 -11.924,-12.122 -8.833,-12.122C-3.763,-12.122 0,-9.23 0,-2.852" style="fill:rgb(63,136,200);fill-rule:nonzero;"/></g><g transform="matrix(2,0,0,0.921088,756.176,356.718)"><path d="M761.477,99.104L766.429,99.104L766.429,120.258L761.477,120.258L761.477,99.104ZM760.803,92.647C760.803,90.983 762.15,89.676 763.972,89.676C765.795,89.676 767.141,90.904 767.141,92.528C767.141,94.271 765.834,95.618 763.972,95.618C762.15,95.618 760.803,94.311 760.803,92.647M751.93,90.587C753.633,90.587 755.297,90.943 756.406,91.736L755.02,95.46C754.267,94.945 753.315,94.588 752.286,94.588C750.227,94.588 749.156,95.737 749.156,97.995L749.156,99.263L754.979,99.263L754.979,103.223L749.315,103.223L749.315,120.258L744.363,120.258L744.363,103.223L740.878,103.223L740.878,99.263L744.363,99.263L744.363,97.915C744.363,93.479 747.018,90.587 751.93,90.587" style="fill:rgb(63,136,200);fill-rule:nonzero;"/></g><g transform="matrix(2,0,0,0.921088,2327.53,454.132)"><path d="M0,7.883L0,5.427L-5.11,5.427C-8.477,5.427 -9.389,6.695 -9.389,8.239C-9.389,10.022 -7.883,11.171 -5.348,11.171C-2.932,11.171 -0.832,10.062 0,7.883M4.952,2.099L4.952,14.499L0.277,14.499L0.277,11.924C-0.911,13.746 -3.209,14.776 -6.378,14.776C-11.211,14.776 -14.261,12.122 -14.261,8.438C-14.261,4.912 -11.885,2.139 -5.467,2.139L0,2.139L0,1.822C0,-1.07 -1.743,-2.773 -5.269,-2.773C-7.646,-2.773 -10.102,-1.981 -11.686,-0.674L-13.627,-4.279C-11.369,-6.021 -8.082,-6.893 -4.674,-6.893C1.427,-6.893 4.952,-4.001 4.952,2.099" style="fill:rgb(63,136,200);fill-rule:nonzero;"/></g><g transform="matrix(2,0,0,0.921088,2391.79,458.948)"><path d="M0,-2.852L0,9.27L-4.952,9.27L-4.952,-2.218C-4.952,-5.982 -6.813,-7.804 -9.982,-7.804C-13.508,-7.804 -15.886,-5.665 -15.886,-1.426L-15.886,9.27L-20.837,9.27L-20.837,-11.884L-16.123,-11.884L-16.123,-9.151C-14.499,-11.091 -11.924,-12.122 -8.834,-12.122C-3.763,-12.122 0,-9.23 0,-2.852" style="fill:rgb(63,136,200);fill-rule:nonzero;"/></g><g transform="matrix(2,0,0,0.921088,2437.42,451.651)"><path d="M0,13.23L0,17.192L-18.263,17.192L-18.263,14.063L-6.655,0L-18.024,0L-18.024,-3.962L-0.316,-3.962L-0.316,-0.833L-11.964,13.23L0,13.23Z" style="fill:rgb(63,136,200);fill-rule:nonzero;"/></g><g transform="matrix(2,0,0,0.921088,2472.04,454.132)"><path d="M0,7.883L0,5.427L-5.11,5.427C-8.477,5.427 -9.389,6.695 -9.389,8.239C-9.389,10.022 -7.883,11.171 -5.348,11.171C-2.932,11.171 -0.832,10.062 0,7.883M4.952,2.099L4.952,14.499L0.277,14.499L0.277,11.924C-0.911,13.746 -3.209,14.776 -6.378,14.776C-11.211,14.776 -14.261,12.122 -14.261,8.438C-14.261,4.912 -11.884,2.139 -5.467,2.139L0,2.139L0,1.822C0,-1.07 -1.742,-2.773 -5.269,-2.773C-7.646,-2.773 -10.102,-1.981 -11.686,-0.674L-13.627,-4.279C-11.369,-6.021 -8.081,-6.893 -4.674,-6.893C1.426,-6.893 4.952,-4.001 4.952,2.099" style="fill:rgb(63,136,200);fill-rule:nonzero;"/></g><g transform="matrix(2,0,0,0.921088,1228.17,278.735)"><path d="M0,187.349C0.755,186.872 1.474,186.34 2.129,185.725C2.787,185.108 3.419,184.433 3.927,183.692C4.975,182.164 5.206,180.5 4.361,178.792C4.132,178.328 4.187,177.946 4.359,177.5C5.069,175.67 5.923,173.914 7.098,172.34C7.721,171.506 8.382,170.674 9.152,169.984C9.887,169.327 10.441,168.599 10.822,167.709C11.09,167.083 11.39,166.471 11.65,165.842C12.265,164.365 12.683,162.831 12.792,161.233C12.95,158.941 12.322,156.903 10.607,155.309C9.981,154.726 9.266,154.223 8.535,153.772C7.292,153.004 5.912,152.53 4.517,152.116C2.379,151.481 0.184,151.118 -2.01,150.743C-3.626,150.466 -5.205,150.057 -6.698,149.36C-7.443,149.012 -8.145,148.593 -8.724,148C-9.347,147.362 -9.811,146.627 -9.722,145.7C-9.651,144.971 -9.916,144.371 -10.241,143.766C-11.055,142.253 -12.224,141.059 -13.579,140.036C-15.076,138.905 -16.721,138.033 -18.479,137.393C-19.369,137.068 -20.303,136.859 -21.22,136.605C-22.999,136.114 -24.121,134.978 -24.562,133.186C-24.679,132.706 -24.742,132.212 -24.834,131.705C-26.712,130.257 -28.715,129.016 -30.871,128.027C-33.624,126.765 -36.489,125.971 -39.533,125.85C-43.736,125.682 -47.643,126.628 -51.218,128.873C-51.366,128.967 -51.53,129.035 -51.686,129.114C-53.166,128.351 -54.42,127.277 -55.911,126.565C-56.061,127.043 -56.152,127.482 -56.331,127.882C-56.729,128.768 -57.369,128.98 -58.21,128.541C-58.37,128.458 -58.522,128.353 -58.666,128.243C-60.555,126.796 -61.503,124.976 -60.905,122.55C-60.884,122.462 -60.864,122.373 -60.838,122.286C-60.481,121.115 -60.113,119.947 -59.773,118.771C-59.663,118.389 -59.533,117.976 -59.569,117.592C-59.654,116.689 -60.227,116.131 -61.061,115.824C-62.03,115.466 -63.029,115.501 -64.022,115.651C-64.739,115.759 -65.443,115.95 -66.151,116.108C-67.118,116.324 -67.784,115.961 -68.012,115.045C-68.217,114.222 -68.012,113.426 -67.792,112.632C-67.637,112.071 -67.145,111.905 -66.732,111.641C-65.884,111.099 -65.099,110.485 -64.525,109.642C-63.69,108.415 -63.576,107.127 -64.192,105.766C-64.435,105.232 -64.765,104.84 -65.379,104.778C-66.056,104.708 -66.732,104.605 -67.41,104.596C-68.823,104.576 -70.214,104.729 -71.537,105.311C-71.677,105.823 -71.782,106.31 -71.944,106.779C-72.494,108.367 -73.55,109.398 -75.255,109.649C-77.45,109.972 -79.289,109.306 -80.714,107.586C-81.301,106.879 -81.685,106.056 -81.994,105.195C-82.365,104.163 -82.555,103.091 -82.688,102.008C-82.889,100.376 -82.858,98.742 -82.706,97.11C-82.655,96.569 -82.536,96.051 -82.192,95.585C-80.586,93.403 -78.494,92.021 -75.812,91.51C-74.298,91.222 -72.814,91.435 -71.341,91.667C-68.874,92.056 -66.424,92.542 -63.968,92.997C-63.166,93.146 -62.284,93.165 -61.593,93.533C-60.855,93.925 -60.316,94.677 -59.664,95.24C-59.097,95.729 -58.742,96.329 -58.452,97.014C-58.118,97.805 -57.685,98.557 -57.251,99.301C-57.072,99.607 -56.812,99.885 -56.535,100.11C-56.099,100.465 -55.486,100.263 -55.336,99.731C-55.263,99.473 -55.24,99.195 -55.236,98.925C-55.21,96.835 -55.205,94.745 -55.169,92.657C-55.156,91.932 -55.121,91.202 -55.011,90.487C-54.943,90.052 -54.791,89.588 -54.543,89.228C-53.383,87.542 -51.982,86.154 -49.852,85.768C-49.674,85.736 -49.506,85.655 -49.329,85.617C-48.756,85.494 -48.357,85.15 -48.07,84.655C-47.82,84.223 -47.559,83.796 -47.318,83.359C-46.247,81.404 -45.351,79.37 -44.587,77.276C-44.45,76.902 -44.274,76.542 -44.135,76.215C-43.545,76.215 -43.045,76.255 -42.555,76.205C-41.927,76.14 -41.291,76.053 -40.687,75.879C-40.203,75.74 -40.042,75.216 -40.259,74.762C-40.355,74.558 -40.495,74.375 -40.612,74.181C-41.333,72.984 -40.825,72.193 -39.849,71.729C-39.24,71.441 -38.577,71.229 -37.916,71.095C-35.362,70.578 -32.772,70.519 -30.18,70.624C-29.399,70.656 -28.638,70.599 -27.877,70.458C-25.02,69.933 -22.162,69.402 -19.305,68.874C-18.412,68.709 -16.437,70.196 -15.556,69.982C-12.336,76.032 -12.487,66.686 -12.487,66.686C-13.116,66.607 -13.754,66.594 -14.389,66.578C-14.979,66.563 -15.035,64.993 -15.625,64.974C-16.466,64.946 -18.31,63.158 -18.82,62.379C-18.991,62.119 -19.247,61.905 -19.495,61.708C-19.81,61.459 -19.923,61.129 -19.959,60.759C-20.112,59.165 -19.921,57.674 -18.694,56.485C-18.16,55.967 -17.78,55.348 -17.643,54.613C-17.489,53.798 -17.52,52.983 -17.77,52.186C-18.059,51.266 -18.489,50.426 -19.148,49.706C-19.687,49.117 -19.902,48.474 -19.375,47.742C-19.273,47.6 -19.237,47.408 -19.184,47.235C-18.718,45.724 -19.345,44.53 -20.851,44.026C-21.652,43.758 -22.469,43.776 -23.277,43.909C-25.024,44.196 -26.761,44.555 -28.51,44.822C-30.072,45.061 -31.619,45.396 -33.233,44.963C-34.393,44.651 -35.557,45.957 -35.306,47.168C-35.225,47.56 -35.02,47.929 -34.854,48.301C-34.383,49.358 -34.188,50.464 -34.232,51.618C-34.25,52.084 -34.365,52.516 -34.632,52.899C-35.008,53.442 -35.525,53.618 -36.173,53.463C-36.925,53.283 -37.462,52.823 -37.886,52.203C-38.407,51.44 -38.71,50.589 -38.902,49.694C-39.123,48.668 -39.443,47.679 -39.937,46.748C-40.892,44.944 -42.351,43.87 -44.38,43.499C-45.943,43.213 -47.451,43.354 -48.962,43.754C-49.938,44.013 -50.848,44.407 -51.646,45.038C-52.217,45.491 -52.529,46.062 -52.451,46.813C-52.423,47.084 -52.406,47.357 -52.39,47.629C-52.275,49.493 -52.306,51.353 -52.52,53.21C-52.6,53.902 -52.79,54.545 -53.248,55.084C-53.557,55.446 -53.973,55.544 -54.335,55.245C-54.784,54.871 -55.235,54.462 -55.559,53.982C-56.293,52.891 -56.981,51.766 -57.63,50.621C-58.653,48.818 -58.679,48.77 -60.67,48.25C-60.802,48.216 -60.939,48.204 -61.071,48.17C-63.417,47.582 -65.818,47.376 -68.216,47.174C-69.024,47.106 -69.72,46.898 -70.342,46.404C-70.945,45.924 -71.594,45.486 -72.13,44.938C-72.663,44.391 -73.158,43.776 -73.531,43.113C-74.257,41.826 -74.068,40.577 -73.118,39.45C-72.555,38.781 -71.853,38.279 -71.1,37.848C-69.793,37.098 -68.389,36.586 -66.97,36.094C-66.355,35.881 -65.847,35.944 -65.278,36.202C-63.914,36.821 -62.541,37.424 -61.147,37.972C-60.093,38.387 -59.007,38.724 -57.925,39.064C-57.111,39.32 -56.324,39.25 -55.561,38.814C-54.016,37.934 -52.528,36.975 -51.213,35.775C-50.813,35.41 -50.446,34.997 -50.123,34.562C-49.942,34.32 -49.83,33.997 -49.777,33.695C-49.693,33.213 -50.094,32.781 -50.58,32.822C-50.984,32.855 -51.382,32.972 -51.783,33.046C-53.346,33.335 -54.905,33.636 -56.472,33.899C-56.947,33.979 -57.457,34.086 -57.965,33.734C-57.637,32.37 -57.531,30.977 -57.433,29.582C-57.423,29.447 -57.411,29.308 -57.372,29.178C-57.231,28.704 -57.173,28.175 -56.716,27.87C-56.289,27.584 -55.853,27.734 -55.416,27.897C-54.927,28.079 -54.486,27.905 -54.199,27.524C-53.875,27.096 -53.568,26.622 -53.389,26.121C-52.658,24.081 -52.394,21.969 -52.655,19.816C-52.742,19.103 -52.943,18.391 -53.195,17.716C-53.425,17.101 -53.876,16.643 -54.594,16.564C-55.429,16.471 -56.163,16.1 -56.858,15.671C-57.707,15.146 -58.535,14.583 -59.349,14.005C-60.608,13.109 -61.832,12.164 -63.102,11.285C-63.847,10.77 -64.638,10.316 -65.435,9.882C-66.6,9.247 -67.747,9.268 -68.932,9.939C-70.399,10.77 -71.787,11.709 -73.135,12.716C-74.569,13.788 -75.665,10.734 -76.924,9.565C-62.407,0.993 -45.494,-3.935 -27.449,-3.935C6.194,-3.935 35.917,13.174 53.475,39.149C51.351,39.431 49.342,40.159 47.431,41.24C46.98,41.494 46.566,41.851 46.216,42.234C45.436,43.089 45.336,44.041 45.953,45.03C46.287,45.564 46.746,46.026 47.176,46.495C47.428,46.771 47.741,46.991 48.013,47.25C48.522,47.737 48.695,48.291 48.412,48.984C48.055,49.858 47.851,50.775 47.757,51.718C47.728,52.013 47.631,52.306 47.536,52.59C47.373,53.077 47.011,53.306 46.505,53.303C46.317,53.303 46.122,53.305 45.944,53.256C44.461,52.843 42.97,52.451 41.503,51.984C40.825,51.768 40.204,51.384 39.699,50.858C38.963,50.091 38.668,49.193 39.037,48.169C39.239,47.608 39.532,47.079 39.808,46.547C39.927,46.315 40.117,46.121 40.252,45.895C40.593,45.327 40.479,44.91 39.88,44.607C39.614,44.473 39.323,44.344 39.033,44.316C38.062,44.22 37.086,44.118 36.112,44.116C34.718,44.112 33.354,44.396 31.983,44.651C31.1,44.815 30.325,45.108 29.633,45.65C28.566,46.486 27.507,47.329 26.449,48.176C26.215,48.364 25.988,48.565 25.778,48.779C25.224,49.343 25.239,49.559 25.818,50.06C26.33,50.501 26.843,50.943 27.336,51.405C27.605,51.657 27.835,51.952 28.092,52.238C29.774,52.071 31.413,51.907 33.033,51.746C33.411,52.292 33.429,52.292 33.414,52.663C33.392,53.227 33.312,53.79 33.313,54.353C33.314,54.839 33.108,55.141 32.671,55.293C32.21,55.454 31.749,55.622 31.275,55.733C30.691,55.87 30.097,55.97 29.501,56.053C29.065,56.113 28.838,56.357 28.725,56.755C28.494,57.563 28.609,58.316 29.068,59.02C29.592,59.823 30.293,60.44 31.083,60.966C31.454,61.214 31.828,61.459 32.23,61.725C32.406,63.003 32.586,64.266 32.746,65.532C32.768,65.701 32.689,65.881 32.657,66.055C31.119,66.239 29.869,66.869 28.905,68.017C27.948,69.158 27.316,70.455 27.034,71.922C27.172,72.009 27.257,72.096 27.358,72.123C28.773,72.505 30.187,72.898 31.609,73.248C32.447,73.454 33.302,73.598 34.151,73.751C34.586,73.83 34.97,73.707 35.273,73.37C35.634,72.973 36.065,72.666 36.569,72.493C37.137,72.297 37.711,72.1 38.298,71.987C39.674,71.722 40.988,71.278 42.261,70.71C43.256,70.266 44.233,69.782 45.208,69.293C45.939,68.927 46.693,68.785 47.503,68.915C48.267,69.038 48.929,69.37 49.531,69.842C49.826,70.074 50.11,70.324 50.425,70.526C51.831,71.432 53.044,72.555 54.072,73.863C54.579,74.509 54.996,75.231 55.408,75.945C55.673,76.405 55.773,76.931 55.729,77.471C55.678,78.082 55.503,78.477 54.76,78.417C54.61,78.406 54.458,78.402 54.31,78.418C54.08,78.442 53.862,78.507 53.766,78.751C53.675,78.982 53.72,79.193 53.884,79.377C54.264,79.807 54.717,80.132 55.257,80.334C55.686,80.495 56.093,80.425 56.428,80.152C56.94,79.736 57.252,79.192 57.253,78.505C57.254,77.541 57.4,77.462 58.276,77.952C58.374,78.007 58.47,78.068 58.569,78.122C58.7,78.193 58.83,78.272 58.969,78.327C59.418,78.502 59.787,78.324 60.087,78.009C60.346,77.737 60.162,77.468 60.032,77.185C59.604,76.255 59.054,75.398 58.387,74.631C57.401,73.495 56.367,72.402 55.352,71.293C54.894,70.794 54.417,70.312 53.975,69.801C53.729,69.518 53.521,69.201 53.328,68.879C53.153,68.587 52.987,68.245 53.231,67.933C53.466,67.635 53.832,67.677 54.171,67.744C54.355,67.78 54.537,67.829 54.718,67.882C55.447,68.1 56.092,68.484 56.712,68.914C57.954,69.777 59.022,70.833 60.071,71.916C61.498,73.39 62.724,74.981 63.44,76.935C63.657,77.527 64.003,78.086 64.365,78.607C64.923,79.411 65.699,79.913 66.692,80.05C68.045,80.236 68.485,79.817 68.38,78.429C68.343,77.942 68.278,77.452 68.297,76.966C68.309,76.654 68.426,76.416 68.601,76.246C69.433,80.848 69.925,85.565 70.086,90.364C68.599,89.914 67.086,89.553 65.525,89.455C63.62,89.336 61.761,89.479 60.094,90.546C59.791,90.74 59.469,90.801 59.125,90.767C58.751,90.73 58.375,90.696 58.008,90.619C56.126,90.224 54.48,89.353 53.034,88.097C51.626,86.874 50.52,85.409 49.587,83.805C49.375,83.442 49.245,83.063 49.213,82.636C49.157,81.887 49.078,81.139 48.974,80.395C48.906,79.919 48.95,79.417 48.709,78.958C47.074,78.342 45.38,77.989 43.675,77.719C41.106,77.311 38.52,77.14 35.915,77.327C32.85,77.547 29.899,78.21 27.078,79.444C25.58,80.1 24.238,80.972 23.059,82.11C20.399,84.676 18.016,87.485 15.674,90.334C15.417,90.646 15.346,90.958 15.374,91.366C15.499,93.204 15.61,95.042 15.667,96.883C15.716,98.503 15.571,100.119 15.264,101.711C15.062,102.761 14.644,103.683 13.741,104.387C12.602,105.277 12.305,106.548 12.508,107.938C12.706,109.289 13.39,110.405 14.282,111.403C15.323,112.566 16.556,113.501 17.949,114.18C18.918,114.651 19.438,115.409 19.766,116.359C20.071,117.246 20.011,118.064 19.213,118.703C19.131,118.768 19.077,118.87 19.001,118.967C19.062,119.075 19.097,119.187 19.171,119.259C20.837,120.877 22.818,121.892 25.104,122.29C27.392,122.689 29.595,122.325 31.732,121.47C32.819,121.035 33.852,120.494 34.822,119.844C35.217,119.579 35.619,119.483 36.088,119.476C36.966,119.465 37.818,119.626 38.651,119.845C41.721,120.654 43.835,122.501 44.692,125.623C44.891,126.343 45.011,127.094 45.077,127.838C45.249,129.766 45.009,131.667 44.593,133.55C44.513,133.916 44.433,134.287 44.402,134.66C44.261,136.425 44.751,137.938 46.245,139.006C46.606,139.264 46.806,139.588 46.942,139.992C47.494,141.633 47.979,143.292 48.271,145C48.447,146.037 48.571,147.082 48.488,148.142C48.406,149.192 48.065,150.058 47.274,150.832C45.694,152.377 45.004,154.336 45.011,156.543C45.013,157.287 45.104,158.012 45.258,158.725C33.277,172.099 17.672,182.162 0,187.349M-43.067,190.029C-89.491,182.531 -125.059,142.182 -125.059,93.675C-125.059,86.154 -124.202,78.83 -122.584,71.794C-119.715,73.762 -116.028,77.256 -116.749,81.932C-115.221,82.475 -114.033,83.393 -113.202,84.759C-112.541,85.843 -111.962,86.976 -111.325,88.077C-110.758,89.058 -110.194,90.044 -109.567,90.987C-109.165,91.591 -108.658,92.145 -107.933,92.377C-107.216,92.606 -106.809,93.12 -106.523,93.762C-106.322,94.217 -106.134,94.682 -105.983,95.157C-105.546,96.546 -105.196,97.962 -105.107,99.417C-105.029,100.706 -104.375,101.626 -103.45,102.419C-103.244,102.596 -103.027,102.77 -102.791,102.9C-101.957,103.357 -101.329,103.023 -101.294,102.089C-101.278,101.684 -101.331,101.271 -101.397,100.87C-101.597,99.66 -101.816,98.454 -102.03,97.247C-102.34,95.504 -102.649,93.76 -102.961,92.017C-103.005,91.775 -103.009,91.757 -102.781,91.154C-102.582,91.439 -102.395,91.687 -102.228,91.949C-100.764,94.248 -99.343,96.573 -98.1,99.003C-96.752,101.636 -95.236,104.167 -93.444,106.527C-91.897,108.563 -90.166,110.417 -88.133,111.98C-84.662,114.649 -80.755,116.019 -76.362,115.959C-75.36,115.945 -75.061,116.274 -75.165,117.248C-75.18,117.383 -75.212,117.517 -75.244,117.649C-75.523,118.771 -75.071,119.596 -74.176,120.224C-73.571,120.647 -72.883,120.878 -72.16,121.004C-70.313,121.327 -68.463,121.427 -66.615,121.007C-66.208,120.914 -65.871,121.043 -65.668,121.374C-65.361,121.874 -65.05,122.388 -64.856,122.937C-64.525,123.877 -64.279,124.848 -64.006,125.808C-63.501,127.578 -62.674,129.183 -61.546,130.632C-61.041,131.28 -60.459,131.85 -59.729,132.256C-58.662,132.85 -57.636,132.774 -56.655,132.084C-56.324,131.851 -56.051,131.536 -55.738,131.273C-55.184,130.807 -54.511,130.818 -54.065,131.401C-53.744,131.822 -53.48,132.334 -53.349,132.846C-52.55,135.954 -53.069,138.823 -55.206,141.258C-55.954,142.11 -56.431,143.033 -56.781,144.068C-57.98,147.61 -58.398,151.244 -57.945,154.953C-57.549,158.191 -56.471,161.219 -54.858,164.053C-52.462,168.265 -49.262,171.769 -45.376,174.636C-44.556,175.241 -44.056,175.953 -43.732,176.881C-43.112,178.657 -42.806,180.484 -42.711,182.352C-42.581,184.934 -42.725,187.492 -43.067,190.029M-27.449,-8.108C-83.572,-8.108 -129.231,37.552 -129.231,93.675C-129.231,149.798 -83.572,195.457 -27.449,195.457C28.674,195.457 74.334,149.798 74.334,93.675C74.334,37.552 28.674,-8.108 -27.449,-8.108" style="fill:rgb(63,136,200);fill-rule:nonzero;"/></g><g transform="matrix(2,0,0,0.921088,1268.39,297.338)"><path d="M0,-3.417C-0.952,-3.29 -1.908,-3.173 -2.861,-3.033C-3.787,-2.898 -4.72,-2.78 -5.586,-2.329C-5.548,-1.905 -5.481,-1.542 -5.493,-1.18C-5.504,-0.838 -5.582,-0.494 -5.658,-0.157C-5.739,0.208 -5.836,0.572 -5.954,0.926C-6.273,1.88 -6.606,2.83 -6.939,3.778C-6.976,3.881 -7.053,3.969 -7.139,4.108C-7.32,4.055 -7.493,4.003 -7.666,3.951C-7.871,3.889 -8.071,3.795 -8.28,3.769C-9.109,3.666 -9.645,4.074 -9.835,4.813C-9.906,5.09 -9.962,5.375 -9.99,5.659C-10.021,5.974 -10.018,6.292 -10.022,6.608C-10.035,7.426 -10.364,8.072 -11.018,8.486C-11.409,8.734 -11.84,8.93 -12.273,9.071C-13.288,9.403 -14.335,9.459 -15.383,9.469C-17.049,9.484 -18.698,9.314 -20.345,9.092C-20.954,9.011 -21.569,8.954 -22.185,8.94C-23.093,8.919 -23.936,9.207 -24.701,9.752C-25.207,10.112 -25.1,9.885 -25.579,10.172C-25.802,10.697 -25.718,10.398 -26.031,10.867C-26.264,11.214 -26.571,11.526 -26.896,11.777C-27.579,12.307 -28.403,12.272 -29.059,11.727C-29.267,11.553 -29.453,11.347 -29.631,11.136C-30.022,10.672 -31.043,12.016 -31.416,11.535C-31.783,11.061 -32.013,10.513 -31.964,9.878C-31.929,9.415 -32.127,9.109 -32.44,8.862C-32.696,8.661 -32.968,8.481 -33.232,8.291C-33.453,8.134 -33.679,7.983 -33.892,7.814C-34.332,7.463 -34.545,7.036 -34.382,6.401C-34.21,5.728 -34.193,5.031 -34.285,4.341C-34.354,3.823 -34.516,3.365 -34.858,2.961C-35.596,2.09 -35.847,1.025 -35.695,-0.15C-35.64,-0.577 -35.523,-0.997 -35.435,-1.419C-35.387,-1.645 -35.316,-1.867 -35.293,-2.094C-35.222,-2.781 -35.446,-3.331 -35.967,-3.732C-36.381,-4.052 -36.842,-4.278 -37.333,-4.411C-38.004,-4.594 -38.682,-4.759 -39.366,-4.88C-40.737,-5.121 -42.115,-5.322 -43.456,-5.715C-44.177,-5.926 -44.897,-6.141 -45.551,-6.532C-45.825,-6.696 -46.098,-6.89 -46.317,-7.128C-46.666,-7.505 -46.638,-7.97 -46.282,-8.35C-46.148,-8.493 -45.994,-8.615 -45.842,-8.736C-42.89,-11.083 -39.608,-12.428 -35.971,-12.704C-35.476,-12.742 -35.035,-12.665 -34.589,-12.411C-33.098,-11.564 -31.494,-11.428 -29.832,-11.774C-28.059,-12.145 -26.461,-12.978 -24.95,-14.032C-24.678,-14.222 -24.396,-14.406 -24.154,-14.637C-23.81,-14.964 -23.41,-15.088 -22.979,-15.158C-19.488,-15.724 -16.335,-14.88 -13.488,-12.758C-13.379,-12.676 -13.261,-12.603 -13.172,-12.5C-12.87,-12.147 -12.491,-12.123 -12.07,-12.152C-11.699,-12.178 -11.319,-12.159 -10.951,-12.106C-9.34,-11.878 -8.337,-10.874 -7.98,-9.207C-7.777,-8.257 -7.384,-7.437 -6.889,-6.665C-6.278,-5.714 -5.938,-5.755 -5.178,-6.354C-3.77,-7.462 -2.283,-7.498 -0.75,-6.837C-0.242,-6.619 0.169,-6.266 0.367,-5.69C0.544,-5.182 0.489,-4.669 0.329,-4.166C0.251,-3.923 0.125,-3.697 0,-3.417" style="fill:rgb(63,136,200);fill-rule:nonzero;"/></g></g></g></g></svg>